<svg xmlns="http://www.w3.org/2000/svg" xmlns:xlink="http://www.w3.org/1999/xlink" xmlns:lucid="lucid" width="1307" height="1025"><g transform="translate(-7 -1105)" lucid:page-tab-id="0_0"><path d="M0 1107.65h1321.83V2279.3H0z" fill="#fff"/><path d="M20 1448a6 6 0 0 1 6-6h368a6 6 0 0 1 6 6v324a6 6 0 0 1-6 6H26a6 6 0 0 1-6-6z" fill="#fff"/><path d="M20 1448a6 6 0 0 1 6-6h368a6 6 0 0 1 6 6v324a6 6 0 0 1-6 6H26a6 6 0 0 1-6-6zM20 1482h380M80 1482v296M268 1482v296" stroke="#3a414a" stroke-width="1.5" fill="none"/><use xlink:href="#a" transform="matrix(1,0,0,1,30,1442) translate(151.0493827160494 24.444444444444443)"/><use xlink:href="#b" transform="matrix(1,0,0,1,25,1484.5) translate(10.185185185185187 20.444444444444443)"/><use xlink:href="#c" transform="matrix(1,0,0,1,85,1484.5) translate(0 20.444444444444443)"/><use xlink:href="#d" transform="matrix(1,0,0,1,273,1484.5) translate(0 20.444444444444443)"/><use xlink:href="#e" transform="matrix(1,0,0,1,85,1521.5) translate(0 20.444444444444443)"/><use xlink:href="#f" transform="matrix(1,0,0,1,273,1521.5) translate(0 20.444444444444443)"/><use xlink:href="#g" transform="matrix(1,0,0,1,85,1558.5) translate(0 20.444444444444443)"/><use xlink:href="#f" transform="matrix(1,0,0,1,273,1558.5) translate(0 20.444444444444443)"/><use xlink:href="#h" transform="matrix(1,0,0,1,85,1595.5) translate(0 20.444444444444443)"/><use xlink:href="#f" transform="matrix(1,0,0,1,273,1595.5) translate(0 20.444444444444443)"/><use xlink:href="#i" transform="matrix(1,0,0,1,85,1632.5) translate(0 20.444444444444443)"/><use xlink:href="#f" transform="matrix(1,0,0,1,273,1632.5) translate(0 20.444444444444443)"/><use xlink:href="#j" transform="matrix(1,0,0,1,85,1669.5) translate(0 20.444444444444443)"/><use xlink:href="#k" transform="matrix(1,0,0,1,273,1669.5) translate(0 20.444444444444443)"/><use xlink:href="#l" transform="matrix(1,0,0,1,25,1706.5) translate(10.833333333333336 20.444444444444443)"/><use xlink:href="#m" transform="matrix(1,0,0,1,85,1706.5) translate(0 20.444444444444443)"/><use xlink:href="#f" transform="matrix(1,0,0,1,273,1706.5) translate(0 20.444444444444443)"/><use xlink:href="#n" transform="matrix(1,0,0,1,25,1743.5) translate(10.833333333333336 20.444444444444443)"/><use xlink:href="#o" transform="matrix(1,0,0,1,85,1743.5) translate(0 20.444444444444443)"/><use xlink:href="#p" transform="matrix(1,0,0,1,273,1743.5) translate(0 20.444444444444443)"/><path d="M550 2007a6 6 0 0 1 6-6h248a6 6 0 0 1 6 6v102a6 6 0 0 1-6 6H556a6 6 0 0 1-6-6z" fill="#fff"/><path d="M550 2007a6 6 0 0 1 6-6h248a6 6 0 0 1 6 6v102a6 6 0 0 1-6 6H556a6 6 0 0 1-6-6zM550 2041h260M610 2041v74M691.33 2041v74" stroke="#3a414a" stroke-width="1.5" fill="none"/><use xlink:href="#q" transform="matrix(1,0,0,1,560,2001) translate(65.06172839506173 24.444444444444443)"/><use xlink:href="#b" transform="matrix(1,0,0,1,555,2043.5) translate(10.185185185185187 20.444444444444443)"/><use xlink:href="#r" transform="matrix(1,0,0,1,615,2043.5) translate(0 20.444444444444443)"/><use xlink:href="#f" transform="matrix(1,0,0,1,696.3333333333334,2043.5) translate(0 20.444444444444443)"/><use xlink:href="#s" transform="matrix(1,0,0,1,615,2080.5) translate(0 20.444444444444443)"/><use xlink:href="#f" transform="matrix(1,0,0,1,696.3333333333334,2080.5) translate(0 20.444444444444443)"/><path d="M480 1448a6 6 0 0 1 6-6h388a6 6 0 0 1 6 6v213a6 6 0 0 1-6 6H486a6 6 0 0 1-6-6z" fill="#fff"/><path d="M480 1448a6 6 0 0 1 6-6h388a6 6 0 0 1 6 6v213a6 6 0 0 1-6 6H486a6 6 0 0 1-6-6zM480 1482h400M540 1482v185M761.02 1482v185" stroke="#3a414a" stroke-width="1.5" fill="none"/><use xlink:href="#t" transform="matrix(1,0,0,1,490,1442) translate(154.2283950617284 24.444444444444443)"/><use xlink:href="#b" transform="matrix(1,0,0,1,485,1484.5) translate(10.185185185185187 20.444444444444443)"/><use xlink:href="#c" transform="matrix(1,0,0,1,545,1484.5) translate(0 20.444444444444443)"/><use xlink:href="#d" transform="matrix(1,0,0,1,766.0183727034121,1484.5) translate(0 20.444444444444443)"/><use xlink:href="#u" transform="matrix(1,0,0,1,545,1521.5) translate(0 20.444444444444443)"/><use xlink:href="#f" transform="matrix(1,0,0,1,766.0183727034121,1521.5) translate(0 20.444444444444443)"/><use xlink:href="#v" transform="matrix(1,0,0,1,545,1558.5) translate(0 20.444444444444443)"/><use xlink:href="#f" transform="matrix(1,0,0,1,766.0183727034121,1558.5) translate(0 20.444444444444443)"/><use xlink:href="#w" transform="matrix(1,0,0,1,545,1595.5) translate(0 20.444444444444443)"/><use xlink:href="#x" transform="matrix(1,0,0,1,766.0183727034121,1595.5) translate(0 20.444444444444443)"/><use xlink:href="#y" transform="matrix(1,0,0,1,545,1632.5) translate(0 20.444444444444443)"/><use xlink:href="#z" transform="matrix(1,0,0,1,766.0183727034121,1632.5) translate(0 20.444444444444443)"/><path d="M529.25 2059.5H436a6 6 0 0 1-6-6v-436a6 6 0 0 0-6-6h-4.13" stroke="#3a414a" stroke-width="1.5" fill="none"/><path d="M529.25 2049.5v20M549.25 2059.5h-20" stroke="#3a414a" stroke-width="1.5" fill="#fff"/><path d="M401.08 1601.5l20 10-20 10" stroke="#3a414a" stroke-width="1.5" fill="#fff" fill-opacity="0"/><path d="M401.08 1611.5h20" stroke="#3a414a" stroke-width="1.5" fill="#fff"/><path d="M980 1448a6 6 0 0 1 6-6h308a6 6 0 0 1 6 6v176a6 6 0 0 1-6 6H986a6 6 0 0 1-6-6z" fill="#fff"/><path d="M980 1448a6 6 0 0 1 6-6h308a6 6 0 0 1 6 6v176a6 6 0 0 1-6 6H986a6 6 0 0 1-6-6zM980 1482h320M1040 1482v148M1181.33 1482v148" stroke="#3a414a" stroke-width="1.5" fill="none"/><use xlink:href="#A" transform="matrix(1,0,0,1,990,1442) translate(73.9814814814815 24.444444444444443)"/><use xlink:href="#b" transform="matrix(1,0,0,1,985,1484.5) translate(10.185185185185187 20.444444444444443)"/><use xlink:href="#B" transform="matrix(1,0,0,1,1045,1484.5) translate(0 20.444444444444443)"/><use xlink:href="#d" transform="matrix(1,0,0,1,1186.3333333333333,1484.5) translate(0 20.444444444444443)"/><use xlink:href="#C" transform="matrix(1,0,0,1,1045,1521.5) translate(0 20.444444444444443)"/><use xlink:href="#f" transform="matrix(1,0,0,1,1186.3333333333333,1521.5) translate(0 20.444444444444443)"/><use xlink:href="#D" transform="matrix(1,0,0,1,1045,1558.5) translate(0 20.444444444444443)"/><use xlink:href="#f" transform="matrix(1,0,0,1,1186.3333333333333,1558.5) translate(0 20.444444444444443)"/><use xlink:href="#l" transform="matrix(1,0,0,1,985,1595.5) translate(10.833333333333336 20.444444444444443)"/><use xlink:href="#E" transform="matrix(1,0,0,1,1045,1595.5) translate(0 20.444444444444443)"/><use xlink:href="#f" transform="matrix(1,0,0,1,1186.3333333333333,1595.5) translate(0 20.444444444444443)"/><path d="M960.13 1611.85H946a6 6 0 0 0-6 6v435.66a6 6 0 0 1-6 6H830.75" stroke="#3a414a" stroke-width="1.5" fill="none"/><path d="M978.9 1621.85l-20-10 20-10" stroke="#3a414a" stroke-width="1.5" fill="#fff" fill-opacity="0"/><path d="M978.9 1611.85h-20M830.75 2069.5v-20M810.75 2059.5h20" stroke="#3a414a" stroke-width="1.5" fill="#fff"/><path d="M900.75 1500.5h29.15a.1.1 0 0 0 .1-.1.1.1 0 0 1 .1-.1h30.03" stroke="#3a414a" stroke-width="1.5" fill="none"/><path d="M900.75 1510.5v-20M880.75 1500.5h20" stroke="#3a414a" stroke-width="1.5" fill="#fff"/><path d="M978.9 1510.3l-20-10 20-10" stroke="#3a414a" stroke-width="1.5" fill="#fff" fill-opacity="0"/><path d="M978.9 1500.3h-20" stroke="#3a414a" stroke-width="1.5" fill="#fff"/><path d="M980 1801.16a6 6 0 0 1 6-6h288a6 6 0 0 1 6 6v139a6 6 0 0 1-6 6H986a6 6 0 0 1-6-6z" fill="#fff"/><path d="M980 1801.16a6 6 0 0 1 6-6h288a6 6 0 0 1 6 6v139a6 6 0 0 1-6 6H986a6 6 0 0 1-6-6zM980 1835.16h300M1040 1835.16v111M1161.33 1835.16v111" stroke="#3a414a" stroke-width="1.5" fill="none"/><use xlink:href="#F" transform="matrix(1,0,0,1,990,1795.1599916688424) translate(66.57407407407409 24.444444444444443)"/><use xlink:href="#b" transform="matrix(1,0,0,1,985,1837.6599916688424) translate(10.185185185185187 20.444444444444443)"/><use xlink:href="#c" transform="matrix(1,0,0,1,1045,1837.6599916688424) translate(0 20.444444444444443)"/><use xlink:href="#d" transform="matrix(1,0,0,1,1166.3333333333335,1837.6599916688424) translate(0 20.444444444444443)"/><use xlink:href="#s" transform="matrix(1,0,0,1,1045,1874.6599916688424) translate(0 20.444444444444443)"/><use xlink:href="#f" transform="matrix(1,0,0,1,1166.3333333333335,1874.6599916688424) translate(0 20.444444444444443)"/><use xlink:href="#l" transform="matrix(1,0,0,1,985,1911.6599916688424) translate(10.833333333333336 20.444444444444443)"/><use xlink:href="#E" transform="matrix(1,0,0,1,1045,1911.6599916688424) translate(0 20.444444444444443)"/><use xlink:href="#f" transform="matrix(1,0,0,1,1166.3333333333335,1911.6599916688424) translate(0 20.444444444444443)"/><path d="M960.13 1927.66H946a6 6 0 0 0-6 6v119.85a6 6 0 0 1-6 6H830.75" stroke="#3a414a" stroke-width="1.5" fill="none"/><path d="M978.9 1937.66l-20-10 20-10" stroke="#3a414a" stroke-width="1.5" fill="#fff" fill-opacity="0"/><path d="M978.9 1927.66h-20M830.75 2069.5v-20M810.75 2059.5h20" stroke="#3a414a" stroke-width="1.5" fill="#fff"/><path d="M480 1727a6 6 0 0 1 6-6h418a6 6 0 0 1 6 6v250a6 6 0 0 1-6 6H486a6 6 0 0 1-6-6z" fill="#fff"/><path d="M480 1727a6 6 0 0 1 6-6h418a6 6 0 0 1 6 6v250a6 6 0 0 1-6 6H486a6 6 0 0 1-6-6zM480 1761h430M540 1761v222M791.02 1761v222" stroke="#3a414a" stroke-width="1.5" fill="none"/><use xlink:href="#G" transform="matrix(1,0,0,1,490,1721) translate(145.83333333333334 24.444444444444443)"/><use xlink:href="#H" transform="matrix(1,0,0,1,485,1763.5) translate(3.425925925925931 20.444444444444443)"/><use xlink:href="#B" transform="matrix(1,0,0,1,545,1763.5) translate(0 20.444444444444443)"/><use xlink:href="#d" transform="matrix(1,0,0,1,796.0183727034121,1763.5) translate(0 20.444444444444443)"/><use xlink:href="#H" transform="matrix(1,0,0,1,485,1800.5) translate(3.425925925925931 20.444444444444443)"/><use xlink:href="#I" transform="matrix(1,0,0,1,545,1800.5) translate(0 20.444444444444443)"/><use xlink:href="#d" transform="matrix(1,0,0,1,796.0183727034121,1800.5) translate(0 20.444444444444443)"/><use xlink:href="#l" transform="matrix(1,0,0,1,485,1837.5) translate(10.833333333333336 20.444444444444443)"/><use xlink:href="#J" transform="matrix(1,0,0,1,545,1837.5) translate(0 20.444444444444443)"/><use xlink:href="#d" transform="matrix(1,0,0,1,796.0183727034121,1837.5) translate(0 20.444444444444443)"/><use xlink:href="#K" transform="matrix(1,0,0,1,545,1874.5) translate(0 20.444444444444443)"/><use xlink:href="#f" transform="matrix(1,0,0,1,796.0183727034121,1874.5) translate(0 20.444444444444443)"/><use xlink:href="#L" transform="matrix(1,0,0,1,545,1911.5) translate(0 20.444444444444443)"/><use xlink:href="#f" transform="matrix(1,0,0,1,796.0183727034121,1911.5) translate(0 20.444444444444443)"/><use xlink:href="#M" transform="matrix(1,0,0,1,545,1948.5) translate(0 20.444444444444443)"/><use xlink:href="#x" transform="matrix(1,0,0,1,796.0183727034121,1948.5) translate(0 20.444444444444443)"/><path d="M959.25 1853.58H929.8" stroke="#3a414a" stroke-width="1.5" fill="none"/><path d="M959.25 1843.58v20M979.25 1853.58h-20" stroke="#3a414a" stroke-width="1.5" fill="#fff"/><path d="M911.13 1843.5l19.96 10.08-20.05 9.92" stroke="#3a414a" stroke-width="1.5" fill="#fff" fill-opacity="0"/><path d="M911.1 1853.5l20 .08" stroke="#3a414a" stroke-width="1.5" fill="#fff"/><path d="M459.25 1500.5H456a6 6 0 0 0-6 6v267a6 6 0 0 0 6 6h4.13" stroke="#3a414a" stroke-width="1.5" fill="none"/><path d="M459.25 1490.5v20M479.25 1500.5h-20" stroke="#3a414a" stroke-width="1.5" fill="#fff"/><path d="M478.92 1789.5l-20-10 20-10" stroke="#3a414a" stroke-width="1.5" fill="#fff" fill-opacity="0"/><path d="M478.92 1779.5h-20" stroke="#3a414a" stroke-width="1.5" fill="#fff"/><path d="M420.75 1500.5H434a6 6 0 0 1 6 6v304a6 6 0 0 0 6 6h14.13" stroke="#3a414a" stroke-width="1.5" fill="none"/><path d="M420.75 1510.5v-20M400.75 1500.5h20" stroke="#3a414a" stroke-width="1.5" fill="#fff"/><path d="M478.92 1826.5l-20-10 20-10" stroke="#3a414a" stroke-width="1.5" fill="#fff" fill-opacity="0"/><path d="M478.92 1816.5h-20" stroke="#3a414a" stroke-width="1.5" fill="#fff"/><path d="M270 1287a6 6 0 0 1 6-6h198a6 6 0 0 1 6 6v102a6 6 0 0 1-6 6H276a6 6 0 0 1-6-6z" fill="#fff"/><path d="M270 1287a6 6 0 0 1 6-6h198a6 6 0 0 1 6 6v102a6 6 0 0 1-6 6H276a6 6 0 0 1-6-6zM270 1321h210M330 1321v74M430.67 1321v74" stroke="#3a414a" stroke-width="1.5" fill="none"/><use xlink:href="#N" transform="matrix(1,0,0,1,280,1281) translate(41.358024691358025 24.444444444444443)"/><use xlink:href="#H" transform="matrix(1,0,0,1,275,1323.5) translate(3.425925925925931 20.444444444444443)"/><use xlink:href="#B" transform="matrix(1,0,0,1,335,1323.5) translate(0 20.444444444444443)"/><use xlink:href="#d" transform="matrix(1,0,0,1,435.66666666666674,1323.5) translate(0 20.444444444444443)"/><use xlink:href="#H" transform="matrix(1,0,0,1,275,1360.5) translate(3.425925925925931 20.444444444444443)"/><use xlink:href="#O" transform="matrix(1,0,0,1,335,1360.5) translate(0 20.444444444444443)"/><use xlink:href="#d" transform="matrix(1,0,0,1,435.66666666666674,1360.5) translate(0 20.444444444444443)"/><path d="M880 1287a6 6 0 0 1 6-6h198a6 6 0 0 1 6 6v102a6 6 0 0 1-6 6H886a6 6 0 0 1-6-6z" fill="#fff"/><path d="M880 1287a6 6 0 0 1 6-6h198a6 6 0 0 1 6 6v102a6 6 0 0 1-6 6H886a6 6 0 0 1-6-6zM880 1321h210M940 1321v74M1040.67 1321v74" stroke="#3a414a" stroke-width="1.5" fill="none"/><use xlink:href="#P" transform="matrix(1,0,0,1,890,1281) translate(28.395061728395063 24.444444444444443)"/><use xlink:href="#H" transform="matrix(1,0,0,1,885,1323.5) translate(3.425925925925931 20.444444444444443)"/><use xlink:href="#B" transform="matrix(1,0,0,1,945,1323.5) translate(0 20.444444444444443)"/><use xlink:href="#d" transform="matrix(1,0,0,1,1045.6666666666667,1323.5) translate(0 20.444444444444443)"/><use xlink:href="#H" transform="matrix(1,0,0,1,885,1360.5) translate(3.425925925925931 20.444444444444443)"/><use xlink:href="#Q" transform="matrix(1,0,0,1,945,1360.5) translate(0 20.444444444444443)"/><use xlink:href="#d" transform="matrix(1,0,0,1,1045.6666666666667,1360.5) translate(0 20.444444444444443)"/><path d="M250 1126a6 6 0 0 1 6-6h238a6 6 0 0 1 6 6v102a6 6 0 0 1-6 6H256a6 6 0 0 1-6-6z" fill="#fff"/><path d="M250 1126a6 6 0 0 1 6-6h238a6 6 0 0 1 6 6v102a6 6 0 0 1-6 6H256a6 6 0 0 1-6-6zM250 1160h250M310 1160v74M384 1160v74" stroke="#3a414a" stroke-width="1.5" fill="none"/><use xlink:href="#R" transform="matrix(1,0,0,1,260,1120) translate(91.57407407407408 24.444444444444443)"/><use xlink:href="#b" transform="matrix(1,0,0,1,255,1162.5) translate(10.185185185185187 20.444444444444443)"/><use xlink:href="#c" transform="matrix(1,0,0,1,315,1162.5) translate(0 20.444444444444443)"/><use xlink:href="#d" transform="matrix(1,0,0,1,389.00000000000006,1162.5) translate(0 20.444444444444443)"/><use xlink:href="#s" transform="matrix(1,0,0,1,315,1199.5) translate(0 20.444444444444443)"/><use xlink:href="#f" transform="matrix(1,0,0,1,389.00000000000006,1199.5) translate(0 20.444444444444443)"/><path d="M860 1126a6 6 0 0 1 6-6h238a6 6 0 0 1 6 6v102a6 6 0 0 1-6 6H866a6 6 0 0 1-6-6z" fill="#fff"/><path d="M860 1126a6 6 0 0 1 6-6h238a6 6 0 0 1 6 6v102a6 6 0 0 1-6 6H866a6 6 0 0 1-6-6zM860 1160h250M920 1160v74M994 1160v74" stroke="#3a414a" stroke-width="1.5" fill="none"/><use xlink:href="#S" transform="matrix(1,0,0,1,870,1120) translate(78.61111111111111 24.444444444444443)"/><use xlink:href="#b" transform="matrix(1,0,0,1,865,1162.5) translate(10.185185185185187 20.444444444444443)"/><use xlink:href="#c" transform="matrix(1,0,0,1,925,1162.5) translate(0 20.444444444444443)"/><use xlink:href="#d" transform="matrix(1,0,0,1,999,1162.5) translate(0 20.444444444444443)"/><use xlink:href="#s" transform="matrix(1,0,0,1,925,1199.5) translate(0 20.444444444444443)"/><use xlink:href="#f" transform="matrix(1,0,0,1,999,1199.5) translate(0 20.444444444444443)"/><path d="M900.75 1500.5h14a6 6 0 0 0 6-6v-70a6 6 0 0 0-6-6h-69.5a6 6 0 0 1-6-6v-67a6 6 0 0 1 6-6h14.88" stroke="#3a414a" stroke-width="1.5" fill="none"/><path d="M900.75 1510.5v-20M880.75 1500.5h20" stroke="#3a414a" stroke-width="1.5" fill="#fff"/><path d="M878.9 1349.5l-20-10 20-10" stroke="#3a414a" stroke-width="1.5" fill="#fff" fill-opacity="0"/><path d="M878.9 1339.5h-20" stroke="#3a414a" stroke-width="1.5" fill="#fff"/><path d="M1130.75 1178.5h14a6 6 0 0 1 6 6v186.28a6 6 0 0 1-6 6h-34.88" stroke="#3a414a" stroke-width="1.5" fill="none"/><path d="M1130.75 1188.5v-20M1110.75 1178.5h20" stroke="#3a414a" stroke-width="1.5" fill="#fff"/><path d="M1091.1 1366.78l20 10-20 10" stroke="#3a414a" stroke-width="1.5" fill="#fff" fill-opacity="0"/><path d="M1091.1 1376.78h20" stroke="#3a414a" stroke-width="1.5" fill="#fff"/><path d="M229.25 1178.5h-14a6 6 0 0 0-6 6v186.28a6 6 0 0 0 6 6h34.88" stroke="#3a414a" stroke-width="1.5" fill="none"/><path d="M229.25 1168.5v20M249.25 1178.5h-20" stroke="#3a414a" stroke-width="1.5" fill="#fff"/><path d="M268.92 1386.78l-20-10 20-10" stroke="#3a414a" stroke-width="1.5" fill="#fff" fill-opacity="0"/><path d="M268.92 1376.78h-20" stroke="#3a414a" stroke-width="1.5" fill="#fff"/><path d="M459.25 1500.5H456a6 6 0 0 1-6-6v-70a6 6 0 0 1 6-6h58.75a6 6 0 0 0 6-6v-67a6 6 0 0 0-6-6h-14.88" stroke="#3a414a" stroke-width="1.5" fill="none"/><path d="M459.25 1490.5v20M479.25 1500.5h-20" stroke="#3a414a" stroke-width="1.5" fill="#fff"/><path d="M481.08 1329.5l20 10-20 10" stroke="#3a414a" stroke-width="1.5" fill="#fff" fill-opacity="0"/><path d="M481.08 1339.5h20" stroke="#3a414a" stroke-width="1.5" fill="#fff"/><defs><path fill="#3a414a" d="M232-93c-1 65-40 97-104 97C67 4 28-28 28-90v-158h33c8 89-33 224 67 224 102 0 64-133 71-224h33v155" id="T"/><path fill="#3a414a" d="M135-143c-3-34-86-38-87 0 15 53 115 12 119 90S17 21 10-45l28-5c4 36 97 45 98 0-10-56-113-15-118-90-4-57 82-63 122-42 12 7 21 19 24 35" id="U"/><path fill="#3a414a" d="M100-194c63 0 86 42 84 106H49c0 40 14 67 53 68 26 1 43-12 49-29l28 8c-11 28-37 45-77 45C44 4 14-33 15-96c1-61 26-98 85-98zm52 81c6-60-76-77-97-28-3 7-6 17-6 28h103" id="V"/><path fill="#3a414a" d="M114-163C36-179 61-72 57 0H25l-1-190h30c1 12-1 29 2 39 6-27 23-49 58-41v29" id="W"/><g id="a"><use transform="matrix(0.061728395061728385,0,0,0.061728395061728385,0,0)" xlink:href="#T"/><use transform="matrix(0.061728395061728385,0,0,0.061728395061728385,15.987654320987652,0)" xlink:href="#U"/><use transform="matrix(0.061728395061728385,0,0,0.061728395061728385,27.09876543209876,0)" xlink:href="#V"/><use transform="matrix(0.061728395061728385,0,0,0.061728395061728385,39.444444444444436,0)" xlink:href="#W"/><use transform="matrix(0.061728395061728385,0,0,0.061728395061728385,46.79012345679011,0)" xlink:href="#U"/></g><path fill="#3a414a" d="M30-248c87 1 191-15 191 75 0 78-77 80-158 76V0H30v-248zm33 125c57 0 124 11 124-50 0-59-68-47-124-48v98" id="X"/><path fill="#3a414a" d="M194 0L95-120 63-95V0H30v-248h33v124l119-124h40L117-140 236 0h-42" id="Y"/><g id="b"><use transform="matrix(0.061728395061728385,0,0,0.061728395061728385,0,0)" xlink:href="#X"/><use transform="matrix(0.061728395061728385,0,0,0.061728395061728385,14.814814814814813,0)" xlink:href="#Y"/></g><path fill="#3a414a" d="M33 0v-248h34V0H33" id="Z"/><path fill="#3a414a" d="M30-248c118-7 216 8 213 122C240-48 200 0 122 0H30v-248zM63-27c89 8 146-16 146-99s-60-101-146-95v194" id="aa"/><g id="c"><use transform="matrix(0.061728395061728385,0,0,0.061728395061728385,0,0)" xlink:href="#Z"/><use transform="matrix(0.061728395061728385,0,0,0.061728395061728385,6.1728395061728385,0)" xlink:href="#aa"/></g><path fill="#3a414a" d="M190 0L58-211 59 0H30v-248h39L202-35l-2-213h31V0h-41" id="ab"/><path fill="#3a414a" d="M127-220V0H93v-220H8v-28h204v28h-85" id="ac"/><g id="d"><use transform="matrix(0.061728395061728385,0,0,0.061728395061728385,0,0)" xlink:href="#Z"/><use transform="matrix(0.061728395061728385,0,0,0.061728395061728385,6.1728395061728385,0)" xlink:href="#ab"/><use transform="matrix(0.061728395061728385,0,0,0.061728395061728385,22.16049382716049,0)" xlink:href="#ac"/></g><path fill="#3a414a" d="M30 0v-248h33v221h125V0H30" id="ad"/><path fill="#3a414a" d="M100-194c62-1 85 37 85 99 1 63-27 99-86 99S16-35 15-95c0-66 28-99 85-99zM99-20c44 1 53-31 53-75 0-43-8-75-51-75s-53 32-53 75 10 74 51 75" id="ae"/><path fill="#3a414a" d="M177-190C167-65 218 103 67 71c-23-6-38-20-44-43l32-5c15 47 100 32 89-28v-30C133-14 115 1 83 1 29 1 15-40 15-95c0-56 16-97 71-98 29-1 48 16 59 35 1-10 0-23 2-32h30zM94-22c36 0 50-32 50-73 0-42-14-75-50-75-39 0-46 34-46 75s6 73 46 73" id="af"/><path fill="#3a414a" d="M24-231v-30h32v30H24zM24 0v-190h32V0H24" id="ag"/><path fill="#3a414a" d="M117-194c89-4 53 116 60 194h-32v-121c0-31-8-49-39-48C34-167 62-67 57 0H25l-1-190h30c1 10-1 24 2 32 11-22 29-35 61-36" id="ah"/><g id="e"><use transform="matrix(0.061728395061728385,0,0,0.061728395061728385,0,0)" xlink:href="#ad"/><use transform="matrix(0.061728395061728385,0,0,0.061728395061728385,12.345679012345677,0)" xlink:href="#ae"/><use transform="matrix(0.061728395061728385,0,0,0.061728395061728385,24.691358024691354,0)" xlink:href="#af"/><use transform="matrix(0.061728395061728385,0,0,0.061728395061728385,37.03703703703703,0)" xlink:href="#ag"/><use transform="matrix(0.061728395061728385,0,0,0.061728395061728385,41.913580246913575,0)" xlink:href="#ah"/></g><path fill="#3a414a" d="M137 0h-34L2-248h35l83 218 83-218h36" id="ai"/><path fill="#3a414a" d="M205 0l-28-72H64L36 0H1l101-248h38L239 0h-34zm-38-99l-47-123c-12 45-31 82-46 123h93" id="aj"/><path fill="#3a414a" d="M233-177c-1 41-23 64-60 70L243 0h-38l-65-103H63V0H30v-248c88 3 205-21 203 71zM63-129c60-2 137 13 137-47 0-61-80-42-137-45v92" id="ak"/><path fill="#3a414a" d="M212-179c-10-28-35-45-73-45-59 0-87 40-87 99 0 60 29 101 89 101 43 0 62-24 78-52l27 14C228-24 195 4 139 4 59 4 22-46 18-125c-6-104 99-153 187-111 19 9 31 26 39 46" id="al"/><path fill="#3a414a" d="M197 0v-115H63V0H30v-248h33v105h134v-105h34V0h-34" id="am"/><g id="f"><use transform="matrix(0.061728395061728385,0,0,0.061728395061728385,0,0)" xlink:href="#ai"/><use transform="matrix(0.061728395061728385,0,0,0.061728395061728385,13.148148148148147,0)" xlink:href="#aj"/><use transform="matrix(0.061728395061728385,0,0,0.061728395061728385,27.962962962962962,0)" xlink:href="#ak"/><use transform="matrix(0.061728395061728385,0,0,0.061728395061728385,43.95061728395061,0)" xlink:href="#al"/><use transform="matrix(0.061728395061728385,0,0,0.061728395061728385,59.938271604938265,0)" xlink:href="#am"/><use transform="matrix(0.061728395061728385,0,0,0.061728395061728385,75.92592592592592,0)" xlink:href="#aj"/><use transform="matrix(0.061728395061728385,0,0,0.061728395061728385,90.74074074074073,0)" xlink:href="#ak"/></g><path fill="#3a414a" d="M141-36C126-15 110 5 73 4 37 3 15-17 15-53c-1-64 63-63 125-63 3-35-9-54-41-54-24 1-41 7-42 31l-33-3c5-37 33-52 76-52 45 0 72 20 72 64v82c-1 20 7 32 28 27v20c-31 9-61-2-59-35zM48-53c0 20 12 33 32 33 41-3 63-29 60-74-43 2-92-5-92 41" id="an"/><path fill="#3a414a" d="M206 0h-36l-40-164L89 0H53L-1-190h32L70-26l43-164h34l41 164 42-164h31" id="ao"/><path fill="#3a414a" d="M85-194c31 0 48 13 60 33l-1-100h32l1 261h-30c-2-10 0-23-3-31C134-8 116 4 85 4 32 4 16-35 15-94c0-66 23-100 70-100zm9 24c-40 0-46 34-46 75 0 40 6 74 45 74 42 0 51-32 51-76 0-42-9-74-50-73" id="ap"/><g id="g"><use transform="matrix(0.061728395061728385,0,0,0.061728395061728385,0,0)" xlink:href="#X"/><use transform="matrix(0.061728395061728385,0,0,0.061728395061728385,14.814814814814813,0)" xlink:href="#an"/><use transform="matrix(0.061728395061728385,0,0,0.061728395061728385,27.16049382716049,0)" xlink:href="#U"/><use transform="matrix(0.061728395061728385,0,0,0.061728395061728385,38.2716049382716,0)" xlink:href="#U"/><use transform="matrix(0.061728395061728385,0,0,0.061728395061728385,49.38271604938271,0)" xlink:href="#ao"/><use transform="matrix(0.061728395061728385,0,0,0.061728395061728385,65.37037037037035,0)" xlink:href="#ae"/><use transform="matrix(0.061728395061728385,0,0,0.061728395061728385,77.71604938271602,0)" xlink:href="#W"/><use transform="matrix(0.061728395061728385,0,0,0.061728395061728385,85.0617283950617,0)" xlink:href="#ap"/></g><path fill="#3a414a" d="M185-189c-5-48-123-54-124 2 14 75 158 14 163 119 3 78-121 87-175 55-17-10-28-26-33-46l33-7c5 56 141 63 141-1 0-78-155-14-162-118-5-82 145-84 179-34 5 7 8 16 11 25" id="aq"/><path fill="#3a414a" d="M24 0v-261h32V0H24" id="ar"/><path fill="#3a414a" d="M59-47c-2 24 18 29 38 22v24C64 9 27 4 27-40v-127H5v-23h24l9-43h21v43h35v23H59v120" id="as"/><g id="h"><use transform="matrix(0.061728395061728385,0,0,0.061728395061728385,0,0)" xlink:href="#aq"/><use transform="matrix(0.061728395061728385,0,0,0.061728395061728385,14.814814814814813,0)" xlink:href="#an"/><use transform="matrix(0.061728395061728385,0,0,0.061728395061728385,27.16049382716049,0)" xlink:href="#ar"/><use transform="matrix(0.061728395061728385,0,0,0.061728395061728385,32.03703703703703,0)" xlink:href="#as"/></g><path fill="#3a414a" d="M115-194c55 1 70 41 70 98S169 2 115 4C84 4 66-9 55-30l1 105H24l-1-265h31l2 30c10-21 28-34 59-34zm-8 174c40 0 45-34 45-75s-6-73-45-74c-42 0-51 32-51 76 0 43 10 73 51 73" id="at"/><g id="i"><use transform="matrix(0.061728395061728385,0,0,0.061728395061728385,0,0)" xlink:href="#ac"/><use transform="matrix(0.061728395061728385,0,0,0.061728395061728385,11.04938271604938,0)" xlink:href="#ae"/><use transform="matrix(0.061728395061728385,0,0,0.061728395061728385,23.395061728395056,0)" xlink:href="#as"/><use transform="matrix(0.061728395061728385,0,0,0.061728395061728385,29.567901234567895,0)" xlink:href="#at"/><use transform="matrix(0.061728395061728385,0,0,0.061728395061728385,41.91358024691357,0)" xlink:href="#al"/><use transform="matrix(0.061728395061728385,0,0,0.061728395061728385,57.90123456790122,0)" xlink:href="#ae"/><use transform="matrix(0.061728395061728385,0,0,0.061728395061728385,70.2469135802469,0)" xlink:href="#ap"/><use transform="matrix(0.061728395061728385,0,0,0.061728395061728385,82.59259259259258,0)" xlink:href="#V"/></g><path fill="#3a414a" d="M96-169c-40 0-48 33-48 73s9 75 48 75c24 0 41-14 43-38l32 2c-6 37-31 61-74 61-59 0-76-41-82-99-10-93 101-131 147-64 4 7 5 14 7 22l-32 3c-4-21-16-35-41-35" id="au"/><path fill="#3a414a" d="M108 0H70L1-190h34L89-25l56-165h34" id="av"/><g id="j"><use transform="matrix(0.061728395061728385,0,0,0.061728395061728385,0,0)" xlink:href="#ac"/><use transform="matrix(0.061728395061728385,0,0,0.061728395061728385,11.04938271604938,0)" xlink:href="#ae"/><use transform="matrix(0.061728395061728385,0,0,0.061728395061728385,23.395061728395056,0)" xlink:href="#as"/><use transform="matrix(0.061728395061728385,0,0,0.061728395061728385,29.567901234567895,0)" xlink:href="#at"/><use transform="matrix(0.061728395061728385,0,0,0.061728395061728385,41.91358024691357,0)" xlink:href="#ak"/><use transform="matrix(0.061728395061728385,0,0,0.061728395061728385,57.90123456790122,0)" xlink:href="#V"/><use transform="matrix(0.061728395061728385,0,0,0.061728395061728385,70.2469135802469,0)" xlink:href="#au"/><use transform="matrix(0.061728395061728385,0,0,0.061728395061728385,81.35802469135801,0)" xlink:href="#ae"/><use transform="matrix(0.061728395061728385,0,0,0.061728395061728385,93.7037037037037,0)" xlink:href="#av"/><use transform="matrix(0.061728395061728385,0,0,0.061728395061728385,104.81481481481481,0)" xlink:href="#V"/><use transform="matrix(0.061728395061728385,0,0,0.061728395061728385,117.16049382716048,0)" xlink:href="#W"/><use transform="matrix(0.061728395061728385,0,0,0.061728395061728385,124.50617283950616,0)" xlink:href="#ag"/><use transform="matrix(0.061728395061728385,0,0,0.061728395061728385,129.3827160493827,0)" xlink:href="#V"/><use transform="matrix(0.061728395061728385,0,0,0.061728395061728385,141.72839506172838,0)" xlink:href="#U"/></g><path fill="#3a414a" d="M26 75v-336h71v23H56V52h41v23H26" id="aw"/><path fill="#3a414a" d="M3 75V52h41v-290H3v-23h71V75H3" id="ax"/><g id="k"><use transform="matrix(0.061728395061728385,0,0,0.061728395061728385,0,0)" xlink:href="#ai"/><use transform="matrix(0.061728395061728385,0,0,0.061728395061728385,13.148148148148147,0)" xlink:href="#aj"/><use transform="matrix(0.061728395061728385,0,0,0.061728395061728385,27.962962962962962,0)" xlink:href="#ak"/><use transform="matrix(0.061728395061728385,0,0,0.061728395061728385,43.95061728395061,0)" xlink:href="#al"/><use transform="matrix(0.061728395061728385,0,0,0.061728395061728385,59.938271604938265,0)" xlink:href="#am"/><use transform="matrix(0.061728395061728385,0,0,0.061728395061728385,75.92592592592592,0)" xlink:href="#aj"/><use transform="matrix(0.061728395061728385,0,0,0.061728395061728385,90.74074074074073,0)" xlink:href="#ak"/><use transform="matrix(0.061728395061728385,0,0,0.061728395061728385,106.72839506172838,0)" xlink:href="#aw"/><use transform="matrix(0.061728395061728385,0,0,0.061728395061728385,112.90123456790121,0)" xlink:href="#ax"/></g><path fill="#3a414a" d="M63-220v92h138v28H63V0H30v-248h175v28H63" id="ay"/><g id="l"><use transform="matrix(0.061728395061728385,0,0,0.061728395061728385,0,0)" xlink:href="#ay"/><use transform="matrix(0.061728395061728385,0,0,0.061728395061728385,13.518518518518515,0)" xlink:href="#Y"/></g><path fill="#3a414a" d="M101-234c-31-9-42 10-38 44h38v23H63V0H32v-167H5v-23h27c-7-52 17-82 69-68v24" id="az"/><path fill="#3a414a" d="M210-169c-67 3-38 105-44 169h-31v-121c0-29-5-50-35-48C34-165 62-65 56 0H25l-1-190h30c1 10-1 24 2 32 10-44 99-50 107 0 11-21 27-35 58-36 85-2 47 119 55 194h-31v-121c0-29-5-49-35-48" id="aA"/><g id="m"><use transform="matrix(0.061728395061728385,0,0,0.061728395061728385,0,0)" xlink:href="#X"/><use transform="matrix(0.061728395061728385,0,0,0.061728395061728385,14.814814814814813,0)" xlink:href="#W"/><use transform="matrix(0.061728395061728385,0,0,0.061728395061728385,22.16049382716049,0)" xlink:href="#ae"/><use transform="matrix(0.061728395061728385,0,0,0.061728395061728385,34.50617283950616,0)" xlink:href="#az"/><use transform="matrix(0.061728395061728385,0,0,0.061728395061728385,40.679012345679,0)" xlink:href="#ag"/><use transform="matrix(0.061728395061728385,0,0,0.061728395061728385,45.55555555555554,0)" xlink:href="#ar"/><use transform="matrix(0.061728395061728385,0,0,0.061728395061728385,50.43209876543209,0)" xlink:href="#V"/><use transform="matrix(0.061728395061728385,0,0,0.061728395061728385,62.777777777777764,0)" xlink:href="#Z"/><use transform="matrix(0.061728395061728385,0,0,0.061728395061728385,68.9506172839506,0)" xlink:href="#aA"/><use transform="matrix(0.061728395061728385,0,0,0.061728395061728385,87.40740740740739,0)" xlink:href="#an"/><use transform="matrix(0.061728395061728385,0,0,0.061728395061728385,99.75308641975306,0)" xlink:href="#af"/><use transform="matrix(0.061728395061728385,0,0,0.061728395061728385,112.09876543209873,0)" xlink:href="#V"/></g><g id="n"><use transform="matrix(0.061728395061728385,0,0,0.061728395061728385,0,0)" xlink:href="#ay"/><use transform="matrix(0.061728395061728385,0,0,0.061728395061728385,13.518518518518515,0)" xlink:href="#Y"/></g><path fill="#3a414a" d="M84 4C-5 8 30-112 23-190h32v120c0 31 7 50 39 49 72-2 45-101 50-169h31l1 190h-30c-1-10 1-25-2-33-11 22-28 36-60 37" id="aB"/><g id="o"><use transform="matrix(0.061728395061728385,0,0,0.061728395061728385,0,0)" xlink:href="#aa"/><use transform="matrix(0.061728395061728385,0,0,0.061728395061728385,15.987654320987652,0)" xlink:href="#V"/><use transform="matrix(0.061728395061728385,0,0,0.061728395061728385,28.33333333333333,0)" xlink:href="#az"/><use transform="matrix(0.061728395061728385,0,0,0.061728395061728385,34.50617283950616,0)" xlink:href="#an"/><use transform="matrix(0.061728395061728385,0,0,0.061728395061728385,46.85185185185184,0)" xlink:href="#aB"/><use transform="matrix(0.061728395061728385,0,0,0.061728395061728385,59.19753086419752,0)" xlink:href="#ar"/><use transform="matrix(0.061728395061728385,0,0,0.061728395061728385,64.07407407407406,0)" xlink:href="#as"/><use transform="matrix(0.061728395061728385,0,0,0.061728395061728385,70.2469135802469,0)" xlink:href="#ad"/><use transform="matrix(0.061728395061728385,0,0,0.061728395061728385,82.59259259259258,0)" xlink:href="#an"/><use transform="matrix(0.061728395061728385,0,0,0.061728395061728385,94.93827160493825,0)" xlink:href="#ah"/><use transform="matrix(0.061728395061728385,0,0,0.061728395061728385,107.28395061728392,0)" xlink:href="#af"/><use transform="matrix(0.061728395061728385,0,0,0.061728395061728385,119.62962962962959,0)" xlink:href="#aB"/><use transform="matrix(0.061728395061728385,0,0,0.061728395061728385,131.97530864197526,0)" xlink:href="#an"/><use transform="matrix(0.061728395061728385,0,0,0.061728395061728385,144.32098765432093,0)" xlink:href="#af"/><use transform="matrix(0.061728395061728385,0,0,0.061728395061728385,156.6666666666666,0)" xlink:href="#V"/></g><g id="p"><use transform="matrix(0.061728395061728385,0,0,0.061728395061728385,0,0)" xlink:href="#ai"/><use transform="matrix(0.061728395061728385,0,0,0.061728395061728385,13.148148148148147,0)" xlink:href="#aj"/><use transform="matrix(0.061728395061728385,0,0,0.061728395061728385,27.962962962962962,0)" xlink:href="#ak"/><use transform="matrix(0.061728395061728385,0,0,0.061728395061728385,43.95061728395061,0)" xlink:href="#al"/><use transform="matrix(0.061728395061728385,0,0,0.061728395061728385,59.938271604938265,0)" xlink:href="#am"/><use transform="matrix(0.061728395061728385,0,0,0.061728395061728385,75.92592592592592,0)" xlink:href="#aj"/><use transform="matrix(0.061728395061728385,0,0,0.061728395061728385,90.74074074074073,0)" xlink:href="#ak"/></g><g id="q"><use transform="matrix(0.061728395061728385,0,0,0.061728395061728385,0,0)" xlink:href="#ad"/><use transform="matrix(0.061728395061728385,0,0,0.061728395061728385,12.345679012345677,0)" xlink:href="#an"/><use transform="matrix(0.061728395061728385,0,0,0.061728395061728385,24.691358024691354,0)" xlink:href="#ah"/><use transform="matrix(0.061728395061728385,0,0,0.061728395061728385,37.03703703703703,0)" xlink:href="#af"/><use transform="matrix(0.061728395061728385,0,0,0.061728395061728385,49.38271604938271,0)" xlink:href="#aB"/><use transform="matrix(0.061728395061728385,0,0,0.061728395061728385,61.728395061728385,0)" xlink:href="#an"/><use transform="matrix(0.061728395061728385,0,0,0.061728395061728385,74.07407407407406,0)" xlink:href="#af"/><use transform="matrix(0.061728395061728385,0,0,0.061728395061728385,86.41975308641975,0)" xlink:href="#V"/><use transform="matrix(0.061728395061728385,0,0,0.061728395061728385,98.76543209876542,0)" xlink:href="#U"/></g><path fill="#3a414a" d="M179-190L93 31C79 59 56 82 12 73V49c39 6 53-20 64-50L1-190h34L92-34l54-156h33" id="aC"/><g id="r"><use transform="matrix(0.061728395061728385,0,0,0.061728395061728385,0,0)" xlink:href="#Y"/><use transform="matrix(0.061728395061728385,0,0,0.061728395061728385,14.814814814814813,0)" xlink:href="#V"/><use transform="matrix(0.061728395061728385,0,0,0.061728395061728385,27.16049382716049,0)" xlink:href="#aC"/></g><g id="s"><use transform="matrix(0.061728395061728385,0,0,0.061728395061728385,0,0)" xlink:href="#ab"/><use transform="matrix(0.061728395061728385,0,0,0.061728395061728385,15.987654320987652,0)" xlink:href="#an"/><use transform="matrix(0.061728395061728385,0,0,0.061728395061728385,28.33333333333333,0)" xlink:href="#aA"/><use transform="matrix(0.061728395061728385,0,0,0.061728395061728385,46.79012345679011,0)" xlink:href="#V"/></g><path fill="#3a414a" d="M143 4C61 4 22-44 18-125c-5-107 100-154 193-111 17 8 29 25 37 43l-32 9c-13-25-37-40-76-40-61 0-88 39-88 99 0 61 29 100 91 101 35 0 62-11 79-27v-45h-74v-28h105v86C228-13 192 4 143 4" id="aD"/><g id="t"><use transform="matrix(0.061728395061728385,0,0,0.061728395061728385,0,0)" xlink:href="#aD"/><use transform="matrix(0.061728395061728385,0,0,0.061728395061728385,17.28395061728395,0)" xlink:href="#an"/><use transform="matrix(0.061728395061728385,0,0,0.061728395061728385,29.629629629629626,0)" xlink:href="#aA"/><use transform="matrix(0.061728395061728385,0,0,0.061728395061728385,48.08641975308642,0)" xlink:href="#V"/><use transform="matrix(0.061728395061728385,0,0,0.061728395061728385,60.432098765432094,0)" xlink:href="#U"/></g><g id="u"><use transform="matrix(0.061728395061728385,0,0,0.061728395061728385,0,0)" xlink:href="#Z"/><use transform="matrix(0.061728395061728385,0,0,0.061728395061728385,6.1728395061728385,0)" xlink:href="#aA"/><use transform="matrix(0.061728395061728385,0,0,0.061728395061728385,24.629629629629626,0)" xlink:href="#an"/><use transform="matrix(0.061728395061728385,0,0,0.061728395061728385,36.9753086419753,0)" xlink:href="#af"/><use transform="matrix(0.061728395061728385,0,0,0.061728395061728385,49.32098765432098,0)" xlink:href="#V"/><use transform="matrix(0.061728395061728385,0,0,0.061728395061728385,61.66666666666666,0)" xlink:href="#ai"/><use transform="matrix(0.061728395061728385,0,0,0.061728395061728385,75.2469135802469,0)" xlink:href="#V"/><use transform="matrix(0.061728395061728385,0,0,0.061728395061728385,87.59259259259258,0)" xlink:href="#W"/><use transform="matrix(0.061728395061728385,0,0,0.061728395061728385,94.93827160493827,0)" xlink:href="#as"/><use transform="matrix(0.061728395061728385,0,0,0.061728395061728385,101.1111111111111,0)" xlink:href="#ag"/><use transform="matrix(0.061728395061728385,0,0,0.061728395061728385,105.98765432098764,0)" xlink:href="#au"/><use transform="matrix(0.061728395061728385,0,0,0.061728395061728385,117.09876543209876,0)" xlink:href="#an"/><use transform="matrix(0.061728395061728385,0,0,0.061728395061728385,129.44444444444443,0)" xlink:href="#ar"/></g><path fill="#3a414a" d="M9 0v-24l116-142H16v-24h144v24L44-24h123V0H9" id="aE"/><g id="v"><use transform="matrix(0.061728395061728385,0,0,0.061728395061728385,0,0)" xlink:href="#Z"/><use transform="matrix(0.061728395061728385,0,0,0.061728395061728385,6.1728395061728385,0)" xlink:href="#aA"/><use transform="matrix(0.061728395061728385,0,0,0.061728395061728385,24.629629629629626,0)" xlink:href="#an"/><use transform="matrix(0.061728395061728385,0,0,0.061728395061728385,36.9753086419753,0)" xlink:href="#af"/><use transform="matrix(0.061728395061728385,0,0,0.061728395061728385,49.32098765432098,0)" xlink:href="#V"/><use transform="matrix(0.061728395061728385,0,0,0.061728395061728385,61.66666666666666,0)" xlink:href="#am"/><use transform="matrix(0.061728395061728385,0,0,0.061728395061728385,77.6543209876543,0)" xlink:href="#ae"/><use transform="matrix(0.061728395061728385,0,0,0.061728395061728385,89.99999999999997,0)" xlink:href="#W"/><use transform="matrix(0.061728395061728385,0,0,0.061728395061728385,97.34567901234566,0)" xlink:href="#ag"/><use transform="matrix(0.061728395061728385,0,0,0.061728395061728385,102.2222222222222,0)" xlink:href="#aE"/><use transform="matrix(0.061728395061728385,0,0,0.061728395061728385,113.33333333333331,0)" xlink:href="#ae"/><use transform="matrix(0.061728395061728385,0,0,0.061728395061728385,125.67901234567898,0)" xlink:href="#ah"/><use transform="matrix(0.061728395061728385,0,0,0.061728395061728385,138.02469135802465,0)" xlink:href="#as"/><use transform="matrix(0.061728395061728385,0,0,0.061728395061728385,144.1975308641975,0)" xlink:href="#an"/><use transform="matrix(0.061728395061728385,0,0,0.061728395061728385,156.54320987654316,0)" xlink:href="#ar"/></g><g id="w"><use transform="matrix(0.061728395061728385,0,0,0.061728395061728385,0,0)" xlink:href="#aj"/><use transform="matrix(0.061728395061728385,0,0,0.061728395061728385,14.382716049382715,0)" xlink:href="#av"/><use transform="matrix(0.061728395061728385,0,0,0.061728395061728385,25.493827160493822,0)" xlink:href="#af"/><use transform="matrix(0.061728395061728385,0,0,0.061728395061728385,37.8395061728395,0)" xlink:href="#X"/><use transform="matrix(0.061728395061728385,0,0,0.061728395061728385,52.654320987654316,0)" xlink:href="#ar"/><use transform="matrix(0.061728395061728385,0,0,0.061728395061728385,57.53086419753086,0)" xlink:href="#an"/><use transform="matrix(0.061728395061728385,0,0,0.061728395061728385,69.87654320987653,0)" xlink:href="#aC"/><use transform="matrix(0.061728395061728385,0,0,0.061728395061728385,80.98765432098764,0)" xlink:href="#as"/><use transform="matrix(0.061728395061728385,0,0,0.061728395061728385,87.16049382716048,0)" xlink:href="#ag"/><use transform="matrix(0.061728395061728385,0,0,0.061728395061728385,92.03703703703702,0)" xlink:href="#aA"/><use transform="matrix(0.061728395061728385,0,0,0.061728395061728385,110.49382716049381,0)" xlink:href="#V"/><use transform="matrix(0.061728395061728385,0,0,0.061728395061728385,122.83950617283949,0)" xlink:href="#Z"/><use transform="matrix(0.061728395061728385,0,0,0.061728395061728385,129.01234567901233,0)" xlink:href="#ah"/><use transform="matrix(0.061728395061728385,0,0,0.061728395061728385,141.358024691358,0)" xlink:href="#am"/><use transform="matrix(0.061728395061728385,0,0,0.061728395061728385,157.34567901234564,0)" xlink:href="#ae"/><use transform="matrix(0.061728395061728385,0,0,0.061728395061728385,169.6913580246913,0)" xlink:href="#aB"/><use transform="matrix(0.061728395061728385,0,0,0.061728395061728385,182.03703703703698,0)" xlink:href="#W"/><use transform="matrix(0.061728395061728385,0,0,0.061728395061728385,189.38271604938265,0)" xlink:href="#U"/></g><path fill="#3a414a" d="M240 0l2-218c-23 76-54 145-80 218h-23L58-218 59 0H30v-248h44l77 211c21-75 51-140 76-211h43V0h-30" id="aF"/><g id="x"><use transform="matrix(0.061728395061728385,0,0,0.061728395061728385,0,0)" xlink:href="#aq"/><use transform="matrix(0.061728395061728385,0,0,0.061728395061728385,14.814814814814813,0)" xlink:href="#aF"/><use transform="matrix(0.061728395061728385,0,0,0.061728395061728385,33.2716049382716,0)" xlink:href="#aj"/><use transform="matrix(0.061728395061728385,0,0,0.061728395061728385,48.08641975308642,0)" xlink:href="#ad"/><use transform="matrix(0.061728395061728385,0,0,0.061728395061728385,60.432098765432094,0)" xlink:href="#ad"/><use transform="matrix(0.061728395061728385,0,0,0.061728395061728385,72.77777777777777,0)" xlink:href="#Z"/><use transform="matrix(0.061728395061728385,0,0,0.061728395061728385,78.9506172839506,0)" xlink:href="#ab"/><use transform="matrix(0.061728395061728385,0,0,0.061728395061728385,94.93827160493825,0)" xlink:href="#ac"/></g><g id="y"><use transform="matrix(0.061728395061728385,0,0,0.061728395061728385,0,0)" xlink:href="#ak"/><use transform="matrix(0.061728395061728385,0,0,0.061728395061728385,15.987654320987652,0)" xlink:href="#V"/><use transform="matrix(0.061728395061728385,0,0,0.061728395061728385,28.33333333333333,0)" xlink:href="#ar"/><use transform="matrix(0.061728395061728385,0,0,0.061728395061728385,33.20987654320987,0)" xlink:href="#V"/><use transform="matrix(0.061728395061728385,0,0,0.061728395061728385,45.55555555555555,0)" xlink:href="#an"/><use transform="matrix(0.061728395061728385,0,0,0.061728395061728385,57.90123456790123,0)" xlink:href="#U"/><use transform="matrix(0.061728395061728385,0,0,0.061728395061728385,69.01234567901234,0)" xlink:href="#V"/><use transform="matrix(0.061728395061728385,0,0,0.061728395061728385,81.35802469135803,0)" xlink:href="#aa"/><use transform="matrix(0.061728395061728385,0,0,0.061728395061728385,97.34567901234567,0)" xlink:href="#an"/><use transform="matrix(0.061728395061728385,0,0,0.061728395061728385,109.69135802469134,0)" xlink:href="#as"/><use transform="matrix(0.061728395061728385,0,0,0.061728395061728385,115.86419753086417,0)" xlink:href="#V"/></g><path fill="#3a414a" d="M30 0v-248h187v28H63v79h144v27H63v87h162V0H30" id="aG"/><g id="z"><use transform="matrix(0.061728395061728385,0,0,0.061728395061728385,0,0)" xlink:href="#aa"/><use transform="matrix(0.061728395061728385,0,0,0.061728395061728385,15.987654320987652,0)" xlink:href="#aj"/><use transform="matrix(0.061728395061728385,0,0,0.061728395061728385,29.135802469135797,0)" xlink:href="#ac"/><use transform="matrix(0.061728395061728385,0,0,0.061728395061728385,42.654320987654316,0)" xlink:href="#aG"/></g><g id="A"><use transform="matrix(0.061728395061728385,0,0,0.061728395061728385,0,0)" xlink:href="#aD"/><use transform="matrix(0.061728395061728385,0,0,0.061728395061728385,17.28395061728395,0)" xlink:href="#an"/><use transform="matrix(0.061728395061728385,0,0,0.061728395061728385,29.629629629629626,0)" xlink:href="#aA"/><use transform="matrix(0.061728395061728385,0,0,0.061728395061728385,48.08641975308642,0)" xlink:href="#V"/><use transform="matrix(0.061728395061728385,0,0,0.061728395061728385,60.432098765432094,0)" xlink:href="#ac"/><use transform="matrix(0.061728395061728385,0,0,0.061728395061728385,73.14814814814814,0)" xlink:href="#W"/><use transform="matrix(0.061728395061728385,0,0,0.061728395061728385,80.49382716049382,0)" xlink:href="#an"/><use transform="matrix(0.061728395061728385,0,0,0.061728395061728385,92.83950617283949,0)" xlink:href="#ah"/><use transform="matrix(0.061728395061728385,0,0,0.061728395061728385,105.18518518518516,0)" xlink:href="#U"/><use transform="matrix(0.061728395061728385,0,0,0.061728395061728385,116.29629629629628,0)" xlink:href="#ar"/><use transform="matrix(0.061728395061728385,0,0,0.061728395061728385,121.17283950617282,0)" xlink:href="#an"/><use transform="matrix(0.061728395061728385,0,0,0.061728395061728385,133.5185185185185,0)" xlink:href="#as"/><use transform="matrix(0.061728395061728385,0,0,0.061728395061728385,139.69135802469134,0)" xlink:href="#V"/></g><g id="B"><use transform="matrix(0.061728395061728385,0,0,0.061728395061728385,0,0)" xlink:href="#aD"/><use transform="matrix(0.061728395061728385,0,0,0.061728395061728385,17.28395061728395,0)" xlink:href="#an"/><use transform="matrix(0.061728395061728385,0,0,0.061728395061728385,29.629629629629626,0)" xlink:href="#aA"/><use transform="matrix(0.061728395061728385,0,0,0.061728395061728385,48.08641975308642,0)" xlink:href="#V"/><use transform="matrix(0.061728395061728385,0,0,0.061728395061728385,60.432098765432094,0)" xlink:href="#Z"/><use transform="matrix(0.061728395061728385,0,0,0.061728395061728385,66.60493827160494,0)" xlink:href="#aa"/></g><g id="C"><use transform="matrix(0.061728395061728385,0,0,0.061728395061728385,0,0)" xlink:href="#ac"/><use transform="matrix(0.061728395061728385,0,0,0.061728395061728385,12.716049382716047,0)" xlink:href="#ag"/><use transform="matrix(0.061728395061728385,0,0,0.061728395061728385,17.592592592592588,0)" xlink:href="#as"/><use transform="matrix(0.061728395061728385,0,0,0.061728395061728385,23.765432098765427,0)" xlink:href="#ar"/><use transform="matrix(0.061728395061728385,0,0,0.061728395061728385,28.641975308641968,0)" xlink:href="#V"/></g><g id="D"><use transform="matrix(0.061728395061728385,0,0,0.061728395061728385,0,0)" xlink:href="#aa"/><use transform="matrix(0.061728395061728385,0,0,0.061728395061728385,15.987654320987652,0)" xlink:href="#V"/><use transform="matrix(0.061728395061728385,0,0,0.061728395061728385,28.33333333333333,0)" xlink:href="#U"/><use transform="matrix(0.061728395061728385,0,0,0.061728395061728385,39.444444444444436,0)" xlink:href="#au"/><use transform="matrix(0.061728395061728385,0,0,0.061728395061728385,50.55555555555554,0)" xlink:href="#W"/><use transform="matrix(0.061728395061728385,0,0,0.061728395061728385,57.90123456790122,0)" xlink:href="#ag"/><use transform="matrix(0.061728395061728385,0,0,0.061728395061728385,62.777777777777764,0)" xlink:href="#at"/><use transform="matrix(0.061728395061728385,0,0,0.061728395061728385,75.12345679012344,0)" xlink:href="#as"/><use transform="matrix(0.061728395061728385,0,0,0.061728395061728385,81.29629629629628,0)" xlink:href="#ag"/><use transform="matrix(0.061728395061728385,0,0,0.061728395061728385,86.17283950617282,0)" xlink:href="#ae"/><use transform="matrix(0.061728395061728385,0,0,0.061728395061728385,98.5185185185185,0)" xlink:href="#ah"/></g><g id="E"><use transform="matrix(0.061728395061728385,0,0,0.061728395061728385,0,0)" xlink:href="#ad"/><use transform="matrix(0.061728395061728385,0,0,0.061728395061728385,12.345679012345677,0)" xlink:href="#an"/><use transform="matrix(0.061728395061728385,0,0,0.061728395061728385,24.691358024691354,0)" xlink:href="#ah"/><use transform="matrix(0.061728395061728385,0,0,0.061728395061728385,37.03703703703703,0)" xlink:href="#af"/><use transform="matrix(0.061728395061728385,0,0,0.061728395061728385,49.38271604938271,0)" xlink:href="#aB"/><use transform="matrix(0.061728395061728385,0,0,0.061728395061728385,61.728395061728385,0)" xlink:href="#an"/><use transform="matrix(0.061728395061728385,0,0,0.061728395061728385,74.07407407407406,0)" xlink:href="#af"/><use transform="matrix(0.061728395061728385,0,0,0.061728395061728385,86.41975308641975,0)" xlink:href="#V"/></g><g id="F"><use transform="matrix(0.061728395061728385,0,0,0.061728395061728385,0,0)" xlink:href="#aD"/><use transform="matrix(0.061728395061728385,0,0,0.061728395061728385,17.28395061728395,0)" xlink:href="#an"/><use transform="matrix(0.061728395061728385,0,0,0.061728395061728385,29.629629629629626,0)" xlink:href="#aA"/><use transform="matrix(0.061728395061728385,0,0,0.061728395061728385,48.08641975308642,0)" xlink:href="#V"/><use transform="matrix(0.061728395061728385,0,0,0.061728395061728385,60.432098765432094,0)" xlink:href="#aq"/><use transform="matrix(0.061728395061728385,0,0,0.061728395061728385,75.24691358024691,0)" xlink:href="#as"/><use transform="matrix(0.061728395061728385,0,0,0.061728395061728385,81.41975308641975,0)" xlink:href="#an"/><use transform="matrix(0.061728395061728385,0,0,0.061728395061728385,93.76543209876542,0)" xlink:href="#as"/><use transform="matrix(0.061728395061728385,0,0,0.061728395061728385,99.93827160493825,0)" xlink:href="#aB"/><use transform="matrix(0.061728395061728385,0,0,0.061728395061728385,112.28395061728392,0)" xlink:href="#U"/><use transform="matrix(0.061728395061728385,0,0,0.061728395061728385,123.39506172839504,0)" xlink:href="#V"/><use transform="matrix(0.061728395061728385,0,0,0.061728395061728385,135.7407407407407,0)" xlink:href="#U"/></g><g id="G"><use transform="matrix(0.061728395061728385,0,0,0.061728395061728385,0,0)" xlink:href="#T"/><use transform="matrix(0.061728395061728385,0,0,0.061728395061728385,15.987654320987652,0)" xlink:href="#U"/><use transform="matrix(0.061728395061728385,0,0,0.061728395061728385,27.09876543209876,0)" xlink:href="#V"/><use transform="matrix(0.061728395061728385,0,0,0.061728395061728385,39.444444444444436,0)" xlink:href="#W"/><use transform="matrix(0.061728395061728385,0,0,0.061728395061728385,46.79012345679011,0)" xlink:href="#aD"/><use transform="matrix(0.061728395061728385,0,0,0.061728395061728385,64.07407407407406,0)" xlink:href="#an"/><use transform="matrix(0.061728395061728385,0,0,0.061728395061728385,76.41975308641975,0)" xlink:href="#aA"/><use transform="matrix(0.061728395061728385,0,0,0.061728395061728385,94.87654320987653,0)" xlink:href="#V"/><use transform="matrix(0.061728395061728385,0,0,0.061728395061728385,107.2222222222222,0)" xlink:href="#U"/></g><g id="H"><use transform="matrix(0.061728395061728385,0,0,0.061728395061728385,0,0)" xlink:href="#X"/><use transform="matrix(0.061728395061728385,0,0,0.061728395061728385,14.814814814814813,0)" xlink:href="#ay"/><use transform="matrix(0.061728395061728385,0,0,0.061728395061728385,28.33333333333333,0)" xlink:href="#Y"/></g><g id="I"><use transform="matrix(0.061728395061728385,0,0,0.061728395061728385,0,0)" xlink:href="#T"/><use transform="matrix(0.061728395061728385,0,0,0.061728395061728385,15.987654320987652,0)" xlink:href="#U"/><use transform="matrix(0.061728395061728385,0,0,0.061728395061728385,27.09876543209876,0)" xlink:href="#V"/><use transform="matrix(0.061728395061728385,0,0,0.061728395061728385,39.444444444444436,0)" xlink:href="#W"/><use transform="matrix(0.061728395061728385,0,0,0.061728395061728385,46.79012345679011,0)" xlink:href="#Z"/><use transform="matrix(0.061728395061728385,0,0,0.061728395061728385,52.96296296296295,0)" xlink:href="#aa"/></g><g id="J"><use transform="matrix(0.061728395061728385,0,0,0.061728395061728385,0,0)" xlink:href="#aq"/><use transform="matrix(0.061728395061728385,0,0,0.061728395061728385,14.814814814814813,0)" xlink:href="#as"/><use transform="matrix(0.061728395061728385,0,0,0.061728395061728385,20.98765432098765,0)" xlink:href="#an"/><use transform="matrix(0.061728395061728385,0,0,0.061728395061728385,33.33333333333333,0)" xlink:href="#as"/><use transform="matrix(0.061728395061728385,0,0,0.061728395061728385,39.50617283950616,0)" xlink:href="#aB"/><use transform="matrix(0.061728395061728385,0,0,0.061728395061728385,51.85185185185184,0)" xlink:href="#U"/></g><g id="K"><use transform="matrix(0.061728395061728385,0,0,0.061728395061728385,0,0)" xlink:href="#al"/><use transform="matrix(0.061728395061728385,0,0,0.061728395061728385,15.987654320987652,0)" xlink:href="#aB"/><use transform="matrix(0.061728395061728385,0,0,0.061728395061728385,28.33333333333333,0)" xlink:href="#U"/><use transform="matrix(0.061728395061728385,0,0,0.061728395061728385,39.444444444444436,0)" xlink:href="#as"/><use transform="matrix(0.061728395061728385,0,0,0.061728395061728385,45.61728395061728,0)" xlink:href="#ae"/><use transform="matrix(0.061728395061728385,0,0,0.061728395061728385,57.962962962962955,0)" xlink:href="#aA"/><use transform="matrix(0.061728395061728385,0,0,0.061728395061728385,76.41975308641975,0)" xlink:href="#Z"/><use transform="matrix(0.061728395061728385,0,0,0.061728395061728385,82.59259259259258,0)" xlink:href="#aA"/><use transform="matrix(0.061728395061728385,0,0,0.061728395061728385,101.04938271604937,0)" xlink:href="#an"/><use transform="matrix(0.061728395061728385,0,0,0.061728395061728385,113.39506172839504,0)" xlink:href="#af"/><use transform="matrix(0.061728395061728385,0,0,0.061728395061728385,125.7407407407407,0)" xlink:href="#V"/><use transform="matrix(0.061728395061728385,0,0,0.061728395061728385,138.08641975308637,0)" xlink:href="#ai"/><use transform="matrix(0.061728395061728385,0,0,0.061728395061728385,151.66666666666663,0)" xlink:href="#V"/><use transform="matrix(0.061728395061728385,0,0,0.061728395061728385,164.0123456790123,0)" xlink:href="#W"/><use transform="matrix(0.061728395061728385,0,0,0.061728395061728385,171.35802469135797,0)" xlink:href="#as"/><use transform="matrix(0.061728395061728385,0,0,0.061728395061728385,177.5308641975308,0)" xlink:href="#ag"/><use transform="matrix(0.061728395061728385,0,0,0.061728395061728385,182.40740740740733,0)" xlink:href="#au"/><use transform="matrix(0.061728395061728385,0,0,0.061728395061728385,193.51851851851845,0)" xlink:href="#an"/><use transform="matrix(0.061728395061728385,0,0,0.061728395061728385,205.86419753086412,0)" xlink:href="#ar"/></g><g id="L"><use transform="matrix(0.061728395061728385,0,0,0.061728395061728385,0,0)" xlink:href="#al"/><use transform="matrix(0.061728395061728385,0,0,0.061728395061728385,15.987654320987652,0)" xlink:href="#aB"/><use transform="matrix(0.061728395061728385,0,0,0.061728395061728385,28.33333333333333,0)" xlink:href="#U"/><use transform="matrix(0.061728395061728385,0,0,0.061728395061728385,39.444444444444436,0)" xlink:href="#as"/><use transform="matrix(0.061728395061728385,0,0,0.061728395061728385,45.61728395061728,0)" xlink:href="#ae"/><use transform="matrix(0.061728395061728385,0,0,0.061728395061728385,57.962962962962955,0)" xlink:href="#aA"/><use transform="matrix(0.061728395061728385,0,0,0.061728395061728385,76.41975308641975,0)" xlink:href="#Z"/><use transform="matrix(0.061728395061728385,0,0,0.061728395061728385,82.59259259259258,0)" xlink:href="#aA"/><use transform="matrix(0.061728395061728385,0,0,0.061728395061728385,101.04938271604937,0)" xlink:href="#an"/><use transform="matrix(0.061728395061728385,0,0,0.061728395061728385,113.39506172839504,0)" xlink:href="#af"/><use transform="matrix(0.061728395061728385,0,0,0.061728395061728385,125.7407407407407,0)" xlink:href="#V"/><use transform="matrix(0.061728395061728385,0,0,0.061728395061728385,138.08641975308637,0)" xlink:href="#am"/><use transform="matrix(0.061728395061728385,0,0,0.061728395061728385,154.07407407407402,0)" xlink:href="#ae"/><use transform="matrix(0.061728395061728385,0,0,0.061728395061728385,166.4197530864197,0)" xlink:href="#W"/><use transform="matrix(0.061728395061728385,0,0,0.061728395061728385,173.76543209876536,0)" xlink:href="#ag"/><use transform="matrix(0.061728395061728385,0,0,0.061728395061728385,178.6419753086419,0)" xlink:href="#aE"/><use transform="matrix(0.061728395061728385,0,0,0.061728395061728385,189.753086419753,0)" xlink:href="#ae"/><use transform="matrix(0.061728395061728385,0,0,0.061728395061728385,202.09876543209867,0)" xlink:href="#ah"/><use transform="matrix(0.061728395061728385,0,0,0.061728395061728385,214.44444444444434,0)" xlink:href="#as"/><use transform="matrix(0.061728395061728385,0,0,0.061728395061728385,220.61728395061718,0)" xlink:href="#an"/><use transform="matrix(0.061728395061728385,0,0,0.061728395061728385,232.96296296296285,0)" xlink:href="#ar"/></g><g id="M"><use transform="matrix(0.061728395061728385,0,0,0.061728395061728385,0,0)" xlink:href="#T"/><use transform="matrix(0.061728395061728385,0,0,0.061728395061728385,15.987654320987652,0)" xlink:href="#U"/><use transform="matrix(0.061728395061728385,0,0,0.061728395061728385,27.09876543209876,0)" xlink:href="#V"/><use transform="matrix(0.061728395061728385,0,0,0.061728395061728385,39.444444444444436,0)" xlink:href="#W"/><use transform="matrix(0.061728395061728385,0,0,0.061728395061728385,46.79012345679011,0)" xlink:href="#ak"/><use transform="matrix(0.061728395061728385,0,0,0.061728395061728385,62.777777777777764,0)" xlink:href="#an"/><use transform="matrix(0.061728395061728385,0,0,0.061728395061728385,75.12345679012344,0)" xlink:href="#as"/><use transform="matrix(0.061728395061728385,0,0,0.061728395061728385,81.29629629629628,0)" xlink:href="#V"/></g><g id="N"><use transform="matrix(0.061728395061728385,0,0,0.061728395061728385,0,0)" xlink:href="#aD"/><use transform="matrix(0.061728395061728385,0,0,0.061728395061728385,17.28395061728395,0)" xlink:href="#an"/><use transform="matrix(0.061728395061728385,0,0,0.061728395061728385,29.629629629629626,0)" xlink:href="#aA"/><use transform="matrix(0.061728395061728385,0,0,0.061728395061728385,48.08641975308642,0)" xlink:href="#V"/><use transform="matrix(0.061728395061728385,0,0,0.061728395061728385,60.432098765432094,0)" xlink:href="#ac"/><use transform="matrix(0.061728395061728385,0,0,0.061728395061728385,71.48148148148148,0)" xlink:href="#an"/><use transform="matrix(0.061728395061728385,0,0,0.061728395061728385,83.82716049382717,0)" xlink:href="#af"/><use transform="matrix(0.061728395061728385,0,0,0.061728395061728385,96.17283950617283,0)" xlink:href="#U"/></g><g id="O"><use transform="matrix(0.061728395061728385,0,0,0.061728395061728385,0,0)" xlink:href="#ac"/><use transform="matrix(0.061728395061728385,0,0,0.061728395061728385,11.04938271604938,0)" xlink:href="#an"/><use transform="matrix(0.061728395061728385,0,0,0.061728395061728385,23.395061728395056,0)" xlink:href="#af"/><use transform="matrix(0.061728395061728385,0,0,0.061728395061728385,35.74074074074073,0)" xlink:href="#Z"/><use transform="matrix(0.061728395061728385,0,0,0.061728395061728385,41.91358024691357,0)" xlink:href="#aa"/></g><g id="P"><use transform="matrix(0.061728395061728385,0,0,0.061728395061728385,0,0)" xlink:href="#aD"/><use transform="matrix(0.061728395061728385,0,0,0.061728395061728385,17.28395061728395,0)" xlink:href="#an"/><use transform="matrix(0.061728395061728385,0,0,0.061728395061728385,29.629629629629626,0)" xlink:href="#aA"/><use transform="matrix(0.061728395061728385,0,0,0.061728395061728385,48.08641975308642,0)" xlink:href="#V"/><use transform="matrix(0.061728395061728385,0,0,0.061728395061728385,60.432098765432094,0)" xlink:href="#aD"/><use transform="matrix(0.061728395061728385,0,0,0.061728395061728385,77.71604938271605,0)" xlink:href="#V"/><use transform="matrix(0.061728395061728385,0,0,0.061728395061728385,90.06172839506172,0)" xlink:href="#ah"/><use transform="matrix(0.061728395061728385,0,0,0.061728395061728385,102.40740740740739,0)" xlink:href="#W"/><use transform="matrix(0.061728395061728385,0,0,0.061728395061728385,109.75308641975307,0)" xlink:href="#V"/><use transform="matrix(0.061728395061728385,0,0,0.061728395061728385,122.09876543209876,0)" xlink:href="#U"/></g><g id="Q"><use transform="matrix(0.061728395061728385,0,0,0.061728395061728385,0,0)" xlink:href="#aD"/><use transform="matrix(0.061728395061728385,0,0,0.061728395061728385,17.28395061728395,0)" xlink:href="#V"/><use transform="matrix(0.061728395061728385,0,0,0.061728395061728385,29.629629629629626,0)" xlink:href="#ah"/><use transform="matrix(0.061728395061728385,0,0,0.061728395061728385,41.9753086419753,0)" xlink:href="#W"/><use transform="matrix(0.061728395061728385,0,0,0.061728395061728385,49.32098765432098,0)" xlink:href="#V"/><use transform="matrix(0.061728395061728385,0,0,0.061728395061728385,61.66666666666666,0)" xlink:href="#Z"/><use transform="matrix(0.061728395061728385,0,0,0.061728395061728385,67.83950617283949,0)" xlink:href="#aa"/></g><g id="R"><use transform="matrix(0.061728395061728385,0,0,0.061728395061728385,0,0)" xlink:href="#ac"/><use transform="matrix(0.061728395061728385,0,0,0.061728395061728385,11.04938271604938,0)" xlink:href="#an"/><use transform="matrix(0.061728395061728385,0,0,0.061728395061728385,23.395061728395056,0)" xlink:href="#af"/><use transform="matrix(0.061728395061728385,0,0,0.061728395061728385,35.74074074074073,0)" xlink:href="#U"/></g><g id="S"><use transform="matrix(0.061728395061728385,0,0,0.061728395061728385,0,0)" xlink:href="#aD"/><use transform="matrix(0.061728395061728385,0,0,0.061728395061728385,17.28395061728395,0)" xlink:href="#V"/><use transform="matrix(0.061728395061728385,0,0,0.061728395061728385,29.629629629629626,0)" xlink:href="#ah"/><use transform="matrix(0.061728395061728385,0,0,0.061728395061728385,41.9753086419753,0)" xlink:href="#W"/><use transform="matrix(0.061728395061728385,0,0,0.061728395061728385,49.32098765432098,0)" xlink:href="#V"/><use transform="matrix(0.061728395061728385,0,0,0.061728395061728385,61.66666666666666,0)" xlink:href="#U"/></g></defs></g></svg>